<svg width="23" height="23" viewBox="0 0 23 23" fill="none" xmlns="http://www.w3.org/2000/svg">
<path d="M11.5 0C5.24135 0 0 4.49385 0 10.1731C0 12.8535 1.20219 15.2578 3.09615 17.0563C2.8654 17.6579 2.53857 18.218 2.12838 18.7149C1.58423 19.3751 0.983029 19.986 0.331731 20.5408C0.18888 20.6554 0.0851209 20.8115 0.0347733 20.9876C-0.0155742 21.1637 -0.0100282 21.351 0.0506458 21.5238C0.11132 21.6966 0.224131 21.8463 0.37351 21.9523C0.52289 22.0583 0.701473 22.1152 0.884615 22.1154C2.84404 22.1154 4.25323 22.0933 5.52885 21.7562C6.67 21.4537 7.65104 20.8203 8.65242 19.9313C9.56358 20.1498 10.5039 20.3462 11.5 20.3462C17.7587 20.3462 23 15.8523 23 10.1731C23 4.49385 17.7587 0 11.5 0ZM11.5 1.76923C16.9183 1.76923 21.2308 5.59077 21.2308 10.1731C21.2308 14.7554 16.9183 18.5769 11.5 18.5769C10.5367 18.5769 9.53615 18.4106 8.625 18.162C8.47929 18.1254 8.32665 18.1265 8.18148 18.1652C8.03631 18.2039 7.90338 18.2789 7.79523 18.3832C6.80004 19.3377 6.06669 19.7827 5.08654 20.0418C4.63538 20.1613 3.76492 20.133 3.151 20.1807C3.27485 20.041 3.39073 19.9667 3.51104 19.8207C4.20635 18.9715 4.84062 18.0736 5.03169 17.0563C5.05801 16.9036 5.04376 16.7466 4.99035 16.6011C4.93694 16.4557 4.84626 16.3268 4.72738 16.2274C2.87412 14.697 1.76923 12.5518 1.76923 10.1731C1.76923 5.59077 6.08173 1.76923 11.5 1.76923ZM9.81392 5.22454C9.65821 5.25948 9.51485 5.3359 9.39904 5.44569L8.07211 6.69035L9.26104 7.98896L10.3111 6.99377H12.4395L13.2692 7.935V9.2345L11.002 10.7543C10.8808 10.8368 10.782 10.9482 10.7145 11.0783C10.647 11.2085 10.613 11.3534 10.6154 11.5V13.2692H12.3846V11.9972L14.6519 10.4774C14.7732 10.3948 14.8721 10.2833 14.9395 10.1529C15.007 10.0226 15.041 9.87752 15.0385 9.73077V7.60238C15.0373 7.38858 14.9587 7.18243 14.8173 7.02208L13.4904 5.52885C13.4078 5.43384 13.3059 5.35755 13.1915 5.30507C13.0771 5.25259 12.9528 5.22514 12.8269 5.22454H10.0068C9.94268 5.21751 9.87801 5.21751 9.81392 5.22454ZM10.6154 14.1538V15.9231H12.3846V14.1538H10.6154Z" fill="white"/>
</svg>
