<svg width="41" height="49" viewBox="0 0 41 49" fill="none" xmlns="http://www.w3.org/2000/svg">
<mask id="mask0_1_5" style="mask-type:alpha" maskUnits="userSpaceOnUse" x="0" y="0" width="41" height="49">
<path d="M10.7501 41.0113C13.2616 42.8013 15.5051 44.2771 17.4807 45.4389C20.4678 47.1955 22.1883 48.2061 22.6231 48.2302C23.5201 48.2799 27.9269 41.7534 28.5974 40.4819C29.8578 38.0916 28.0045 29.1243 27.6143 27.7285C27.066 25.7673 25.4444 23.9871 25.0431 23.2527C24.7406 22.6993 26.5744 21.3517 26.858 21.1352C27.3547 20.7559 28.0491 20.4133 29.5805 19.547C31.0893 18.6936 31.902 16.9702 32.2273 16.0819C32.5204 15.2818 32.5015 14.7103 32.6054 14.5419C32.7313 14.3381 35.6111 12.5226 36.311 11.9912C36.8498 11.5821 37.3603 11.4979 37.7479 11.3175C38.2606 11.0787 39.5061 10.4211 40.0166 9.68116C40.3574 9.1871 40.9808 8.44793 40.9997 7.08235C41.0124 6.16704 40.6188 4.64395 40.1678 4.05041C39.7519 3.50297 39.9788 4.8866 40.0922 5.44606C40.1668 5.81365 40.0571 8.04131 39.0335 8.95927C38.4096 9.51874 37.7857 10.0421 37.4454 10.0662C36.9935 10.0981 37.1429 9.57288 37.4454 8.95927C37.7439 8.35384 38.4991 6.27022 38.5041 5.39794C38.5136 3.7436 37.3979 2.27388 36.1598 1.06659C35.4846 0.408222 34.9167 0.0800017 34.4204 0.0078125C34.7702 0.520644 34.9735 0.779322 35.0254 0.825957C35.3206 1.09065 36.6903 2.89913 36.6891 3.32852C36.6872 4.00358 36.9083 5.35934 36.6891 6.36046C36.4245 7.56963 36.3394 7.78018 35.9329 7.99675C35.4299 8.26476 32.3691 7.35306 32.0005 7.17861C31.6318 7.00415 30.1642 5.6364 29.7317 5.20543C29.2307 4.70613 26.6312 2.80514 26.3287 2.751C26.0278 2.69715 26.7826 3.48613 27.0849 3.71352C27.5008 4.02634 29.5049 6.11983 29.5805 6.36046C29.6491 6.57881 29.5427 6.85375 29.1267 6.7936C28.6278 6.72141 21.5549 4.92871 20.2788 4.48354C19.096 4.07096 18.426 3.84587 17.7832 3.80978C17.2753 3.78124 19.1066 4.76628 19.5981 4.91668C20.0897 5.06707 24.7358 6.77189 26.1018 7.08235C27.2929 7.35306 29.1457 7.9005 31.4711 8.23738C33.7416 8.56632 34.6851 9.27811 34.7985 9.82554C34.8941 10.2864 34.2314 11.4318 32.5298 12.7131C31.585 13.4247 30.4583 13.5577 29.1267 13.9163C27.4063 14.3795 24.0694 17.2851 23.6818 17.7182C23.2943 18.1514 23.1241 18.5755 23.0768 18.5364C22.9145 18.402 23.6818 17.4114 24.2112 16.852C24.7406 16.2925 26.1018 15.36 25.8749 15.3119C25.648 15.2638 25.0052 15.348 25.0431 15.0713C25.0809 14.7946 24.9867 11.1332 24.7406 11.1249C24.3813 11.1129 23.8095 14.9119 23.455 15.4563C23.3319 15.6452 20.6139 17.1122 19.9763 17.1888C19.5509 17.24 19.7447 16.7545 19.1444 16.5151C18.4732 16.2474 16.3936 17.4235 16.0438 17.3813C15.6941 17.3392 15.132 17.3204 14.9851 16.9482C14.8403 16.5815 15.386 15.3685 15.8788 14.1088C16.2066 13.2709 16.5109 12.3646 16.5732 11.8468C16.6096 11.5448 16.7717 11.1911 16.5732 11.1249C16.3747 11.0588 15.0418 14.181 14.607 14.4938C14.2662 14.7389 14.1343 15.5826 13.397 15.4082C12.6596 15.2337 10.4193 13.6937 9.6914 13.4831C9.03703 13.2938 7.50504 12.7725 7.57393 12.0875C7.5877 11.9506 8.43506 10.5014 9.54015 8.9393C10.8275 7.1196 12.3336 5.37388 12.5651 4.91668C12.7357 4.57984 12.1964 4.87457 11.9601 5.06106C11.7238 5.24754 6.23153 11.0775 5.91021 11.3175C5.55576 11.5821 5.30053 11.7897 4.54898 11.3175C3.82889 10.865 3.48555 9.10967 3.64149 8.47801C3.78911 7.88028 4.24648 5.19942 4.85147 4.05041C5.45646 2.9014 5.91021 1.47215 5.91021 1.16284C5.91021 0.844004 3.93453 3.8579 3.79274 4.29104C3.72521 4.49735 3.36403 5.30713 3.0365 6.14409C2.67653 7.06407 2.35097 8.01687 2.35588 8.23738C2.36155 8.49096 2.35702 8.63856 2.30499 9.0074C2.27058 9.25106 2.22566 9.80331 2.12901 9.87367C1.84406 10.0812 1.40257 9.95717 1.29715 9.63304C1.10718 9.04883 1.47676 5.59646 1.67527 5.30169C1.91242 4.9495 2.32057 3.75592 2.30499 3.47289C2.28971 3.19617 1.31704 4.68755 0.994653 5.06106C0.662134 5.44635 -0.102802 8.16596 0.0115418 8.57426C0.0737046 8.79603 -0.0279339 9.0561 0.0115418 9.48866C0.040657 9.80692 0.189787 10.3237 0.314037 10.4512C0.60708 10.752 2.53549 12.3582 3.64149 12.8094C4.74749 13.2605 6.38286 13.6937 6.74207 13.82C7.10128 13.9463 11.6671 16.1361 11.8845 17.1888C12.1019 18.2416 10.6934 18.1393 9.91827 17.9107C9.14313 17.6821 7.69682 16.7316 5.91021 16.4188C4.1456 16.1099 2.83799 15.4022 1.29715 15.4082C0.0809644 15.4129 0.0935181 15.1563 0.0115418 16.0819C-0.101894 17.3633 2.71676 20.2477 3.41462 20.5095C4.09281 20.764 5.55825 21.3975 6.74207 21.4239C7.73978 21.4462 7.5551 21.4956 8.17892 21.1352C8.67782 20.847 9.6793 20.31 9.6914 20.317C9.69639 20.32 9.54545 20.6848 8.85954 21.0871C8.46138 21.3206 6.96894 22.3564 6.43957 22.6271C5.91021 22.8978 3.92508 23.5475 3.64149 23.7821C3.3579 24.0167 3.0554 24.2393 3.0365 24.6965C3.01759 25.1537 3.23872 25.9488 3.41462 26.1403C3.61525 26.3588 4.15482 26.3232 4.54898 26.5253C4.97088 26.7416 5.54154 27.3194 5.91021 27.3916C6.27887 27.4638 7.52432 27.4899 7.95205 27.536C8.5665 27.6021 9.50234 27.9691 9.91827 28.1135C10.3342 28.2578 11.1339 28.2686 11.4308 28.5466C11.7688 28.8632 14.2892 29.0211 14.9851 28.9797C15.3488 28.9581 16.3114 28.9591 17.1203 28.8835C17.7997 28.82 18.3792 28.672 18.3882 28.691C18.4094 28.7361 16.7113 29.071 16.1951 29.1241C15.8004 29.1647 13.5388 29.2189 12.3382 29.0279C11.5899 28.9088 11.7805 28.9797 11.8089 29.2685C11.8372 29.5573 10.8919 33.0344 10.0695 33.7924C9.04542 34.7362 7.58497 37.9869 7.64956 38.3162C7.69228 38.5337 8.72652 39.4326 10.7501 41.0113Z" fill="white"/>
</mask>
<g mask="url(#mask0_1_5)">
<path d="M10.7501 41.0113C13.2616 42.8013 15.5051 44.2771 17.4807 45.4389C20.4678 47.1955 22.1883 48.2061 22.6231 48.2302C23.5201 48.2799 27.9269 41.7534 28.5974 40.4819C29.8578 38.0916 28.0045 29.1243 27.6143 27.7285C27.066 25.7673 25.4444 23.9871 25.0431 23.2527C24.7406 22.6993 26.5744 21.3517 26.858 21.1352C27.3547 20.7559 28.0491 20.4133 29.5805 19.547C31.0893 18.6936 31.902 16.9702 32.2273 16.0819C32.5204 15.2818 32.5015 14.7103 32.6054 14.5419C32.7313 14.3381 35.6111 12.5226 36.311 11.9912C36.8498 11.5821 37.3603 11.4979 37.7479 11.3175C38.2606 11.0787 39.5061 10.4211 40.0166 9.68116C40.3574 9.1871 40.9808 8.44793 40.9997 7.08235C41.0124 6.16704 40.6188 4.64395 40.1678 4.05041C39.7519 3.50297 39.9788 4.8866 40.0922 5.44606C40.1668 5.81365 40.0571 8.04131 39.0335 8.95927C38.4096 9.51874 37.7857 10.0421 37.4454 10.0662C36.9935 10.0981 37.1429 9.57288 37.4454 8.95927C37.7439 8.35384 38.4991 6.27022 38.5041 5.39794C38.5136 3.7436 37.3979 2.27388 36.1598 1.06659C35.4846 0.408222 34.9167 0.0800017 34.4204 0.0078125C34.7702 0.520644 34.9735 0.779322 35.0254 0.825957C35.3206 1.09065 36.6903 2.89913 36.6891 3.32852C36.6872 4.00358 36.9083 5.35934 36.6891 6.36046C36.4245 7.56963 36.3394 7.78018 35.9329 7.99675C35.4299 8.26476 32.3691 7.35306 32.0005 7.17861C31.6318 7.00415 30.1642 5.6364 29.7317 5.20543C29.2307 4.70613 26.6312 2.80514 26.3287 2.751C26.0278 2.69715 26.7826 3.48613 27.0849 3.71352C27.5008 4.02634 29.5049 6.11983 29.5805 6.36046C29.6491 6.57881 29.5427 6.85375 29.1267 6.7936C28.6278 6.72141 21.5549 4.92871 20.2788 4.48354C19.096 4.07096 18.426 3.84587 17.7832 3.80978C17.2753 3.78124 19.1066 4.76628 19.5981 4.91668C20.0897 5.06707 24.7358 6.77189 26.1018 7.08235C27.2929 7.35306 29.1457 7.9005 31.4711 8.23738C33.7416 8.56632 34.6851 9.27811 34.7985 9.82554C34.8941 10.2864 34.2314 11.4318 32.5298 12.7131C31.585 13.4247 30.4583 13.5577 29.1267 13.9163C27.4063 14.3795 24.0694 17.2851 23.6818 17.7182C23.2943 18.1514 23.1241 18.5755 23.0768 18.5364C22.9145 18.402 23.6818 17.4114 24.2112 16.852C24.7406 16.2925 26.1018 15.36 25.8749 15.3119C25.648 15.2638 25.0052 15.348 25.0431 15.0713C25.0809 14.7946 24.9867 11.1332 24.7406 11.1249C24.3813 11.1129 23.8095 14.9119 23.455 15.4563C23.3319 15.6452 20.6139 17.1122 19.9763 17.1888C19.5509 17.24 19.7447 16.7545 19.1444 16.5151C18.4732 16.2474 16.3936 17.4235 16.0438 17.3813C15.6941 17.3392 15.132 17.3204 14.9851 16.9482C14.8403 16.5815 15.386 15.3685 15.8788 14.1088C16.2066 13.2709 16.5109 12.3646 16.5732 11.8468C16.6096 11.5448 16.7717 11.1911 16.5732 11.1249C16.3747 11.0588 15.0418 14.181 14.607 14.4938C14.2662 14.7389 14.1343 15.5826 13.397 15.4082C12.6596 15.2337 10.4193 13.6937 9.6914 13.4831C9.03703 13.2938 7.50504 12.7725 7.57393 12.0875C7.5877 11.9506 8.43506 10.5014 9.54015 8.9393C10.8275 7.1196 12.3336 5.37388 12.5651 4.91668C12.7357 4.57984 12.1964 4.87457 11.9601 5.06106C11.7238 5.24754 6.23153 11.0775 5.91021 11.3175C5.55576 11.5821 5.30053 11.7897 4.54898 11.3175C3.82889 10.865 3.48555 9.10967 3.64149 8.47801C3.78911 7.88028 4.24648 5.19942 4.85147 4.05041C5.45646 2.9014 5.91021 1.47215 5.91021 1.16284C5.91021 0.844004 3.93453 3.8579 3.79274 4.29104C3.72521 4.49735 3.36403 5.30713 3.0365 6.14409C2.67653 7.06407 2.35097 8.01687 2.35588 8.23738C2.36155 8.49096 2.35702 8.63856 2.30499 9.0074C2.27058 9.25106 2.22566 9.80331 2.12901 9.87367C1.84406 10.0812 1.40257 9.95717 1.29715 9.63304C1.10718 9.04883 1.47676 5.59646 1.67527 5.30169C1.91242 4.9495 2.32057 3.75592 2.30499 3.47289C2.28971 3.19617 1.31704 4.68755 0.994653 5.06106C0.662134 5.44635 -0.102802 8.16596 0.0115418 8.57426C0.0737046 8.79603 -0.0279339 9.0561 0.0115418 9.48866C0.040657 9.80692 0.189787 10.3237 0.314037 10.4512C0.60708 10.752 2.53549 12.3582 3.64149 12.8094C4.74749 13.2605 6.38286 13.6937 6.74207 13.82C7.10128 13.9463 11.6671 16.1361 11.8845 17.1888C12.1019 18.2416 10.6934 18.1393 9.91827 17.9107C9.14313 17.6821 7.69682 16.7316 5.91021 16.4188C4.1456 16.1099 2.83799 15.4022 1.29715 15.4082C0.0809644 15.4129 0.0935181 15.1563 0.0115418 16.0819C-0.101894 17.3633 2.71676 20.2477 3.41462 20.5095C4.09281 20.764 5.55825 21.3975 6.74207 21.4239C7.73978 21.4462 7.5551 21.4956 8.17892 21.1352C8.67782 20.847 9.6793 20.31 9.6914 20.317C9.69639 20.32 9.54545 20.6848 8.85954 21.0871C8.46138 21.3206 6.96894 22.3564 6.43957 22.6271C5.91021 22.8978 3.92508 23.5475 3.64149 23.7821C3.3579 24.0167 3.0554 24.2393 3.0365 24.6965C3.01759 25.1537 3.23872 25.9488 3.41462 26.1403C3.61525 26.3588 4.15482 26.3232 4.54898 26.5253C4.97088 26.7416 5.54154 27.3194 5.91021 27.3916C6.27887 27.4638 7.52432 27.4899 7.95205 27.536C8.5665 27.6021 9.50234 27.9691 9.91827 28.1135C10.3342 28.2578 11.1339 28.2686 11.4308 28.5466C11.7688 28.8632 14.2892 29.0211 14.9851 28.9797C15.3488 28.9581 16.3114 28.9591 17.1203 28.8835C17.7997 28.82 18.3792 28.672 18.3882 28.691C18.4094 28.7361 16.7113 29.071 16.1951 29.1241C15.8004 29.1647 13.5388 29.2189 12.3382 29.0279C11.5899 28.9088 11.7805 28.9797 11.8089 29.2685C11.8372 29.5573 10.8919 33.0344 10.0695 33.7924C9.04542 34.7362 7.58497 37.9869 7.64956 38.3162C7.69228 38.5337 8.72652 39.4326 10.7501 41.0113Z" fill="#FFECEC"/>
<path d="M10.7501 41.0113C13.2616 42.8013 15.5051 44.2771 17.4807 45.4389C20.4678 47.1955 22.1883 48.2061 22.6231 48.2302C23.5201 48.2799 27.9269 41.7534 28.5974 40.4819C29.8578 38.0916 28.0045 29.1243 27.6143 27.7285C27.066 25.7673 25.4444 23.9871 25.0431 23.2527C24.7406 22.6993 26.5744 21.3517 26.858 21.1352C27.3547 20.7559 28.0491 20.4133 29.5805 19.547C31.0893 18.6936 31.902 16.9702 32.2273 16.0819C32.5204 15.2818 32.5015 14.7103 32.6054 14.5419C32.7313 14.3381 35.6111 12.5226 36.311 11.9912C36.8498 11.5821 37.3603 11.4979 37.7479 11.3175C38.2606 11.0787 39.5061 10.4211 40.0166 9.68116C40.3574 9.1871 40.9808 8.44793 40.9997 7.08235C41.0124 6.16704 40.6188 4.64395 40.1678 4.05041C39.7519 3.50297 39.9788 4.8866 40.0922 5.44606C40.1668 5.81365 40.0571 8.04131 39.0335 8.95927C38.4096 9.51874 37.7857 10.0421 37.4454 10.0662C36.9935 10.0981 37.1429 9.57288 37.4454 8.95927C37.7439 8.35384 38.4991 6.27022 38.5041 5.39794C38.5136 3.7436 37.3979 2.27388 36.1598 1.06659C35.4846 0.408222 34.9167 0.0800017 34.4204 0.0078125C34.7702 0.520644 34.9735 0.779322 35.0254 0.825957C35.3206 1.09065 36.6903 2.89913 36.6891 3.32852C36.6872 4.00358 36.9083 5.35934 36.6891 6.36046C36.4245 7.56963 36.3394 7.78018 35.9329 7.99675C35.4299 8.26476 32.3691 7.35306 32.0005 7.17861C31.6318 7.00415 30.1642 5.6364 29.7317 5.20543C29.2307 4.70613 26.6312 2.80514 26.3287 2.751C26.0278 2.69715 26.7826 3.48613 27.0849 3.71352C27.5008 4.02634 29.5049 6.11983 29.5805 6.36046C29.6491 6.57881 29.5427 6.85375 29.1267 6.7936C28.6278 6.72141 21.5549 4.92871 20.2788 4.48354C19.096 4.07096 18.426 3.84587 17.7832 3.80978C17.2753 3.78124 19.1066 4.76628 19.5981 4.91668C20.0897 5.06707 24.7358 6.77189 26.1018 7.08235C27.2929 7.35306 29.1457 7.9005 31.4711 8.23738C33.7416 8.56632 34.6851 9.27811 34.7985 9.82554C34.8941 10.2864 34.2314 11.4318 32.5298 12.7131C31.585 13.4247 30.4583 13.5577 29.1267 13.9163C27.4063 14.3795 24.0694 17.2851 23.6818 17.7182C23.2943 18.1514 23.1241 18.5755 23.0768 18.5364C22.9145 18.402 23.6818 17.4114 24.2112 16.852C24.7406 16.2925 26.1018 15.36 25.8749 15.3119C25.648 15.2638 25.0052 15.348 25.0431 15.0713C25.0809 14.7946 24.9867 11.1332 24.7406 11.1249C24.3813 11.1129 23.8095 14.9119 23.455 15.4563C23.3319 15.6452 20.6139 17.1122 19.9763 17.1888C19.5509 17.24 19.7447 16.7545 19.1444 16.5151C18.4732 16.2474 16.3936 17.4235 16.0438 17.3813C15.6941 17.3392 15.132 17.3204 14.9851 16.9482C14.8403 16.5815 15.386 15.3685 15.8788 14.1088C16.2066 13.2709 16.5109 12.3646 16.5732 11.8468C16.6096 11.5448 16.7717 11.1911 16.5732 11.1249C16.3747 11.0588 15.0418 14.181 14.607 14.4938C14.2662 14.7389 14.1343 15.5826 13.397 15.4082C12.6596 15.2337 10.4193 13.6937 9.6914 13.4831C9.03703 13.2938 7.50504 12.7725 7.57393 12.0875C7.5877 11.9506 8.43506 10.5014 9.54015 8.9393C10.8275 7.1196 12.3336 5.37388 12.5651 4.91668C12.7357 4.57984 12.1964 4.87457 11.9601 5.06106C11.7238 5.24754 6.23153 11.0775 5.91021 11.3175C5.55576 11.5821 5.30053 11.7897 4.54898 11.3175C3.82889 10.865 3.48555 9.10967 3.64149 8.47801C3.78911 7.88028 4.24648 5.19942 4.85147 4.05041C5.45646 2.9014 5.91021 1.47215 5.91021 1.16284C5.91021 0.844004 3.93453 3.8579 3.79274 4.29104C3.72521 4.49735 3.36403 5.30713 3.0365 6.14409C2.67653 7.06407 2.35097 8.01687 2.35588 8.23738C2.36155 8.49096 2.35702 8.63856 2.30499 9.0074C2.27058 9.25106 2.22566 9.80331 2.12901 9.87367C1.84406 10.0812 1.40257 9.95717 1.29715 9.63304C1.10718 9.04883 1.47676 5.59646 1.67527 5.30169C1.91242 4.9495 2.32057 3.75592 2.30499 3.47289C2.28971 3.19617 1.31704 4.68755 0.994653 5.06106C0.662134 5.44635 -0.102802 8.16596 0.0115418 8.57426C0.0737046 8.79603 -0.0279339 9.0561 0.0115418 9.48866C0.040657 9.80692 0.189787 10.3237 0.314037 10.4512C0.60708 10.752 2.53549 12.3582 3.64149 12.8094C4.74749 13.2605 6.38286 13.6937 6.74207 13.82C7.10128 13.9463 11.6671 16.1361 11.8845 17.1888C12.1019 18.2416 10.6934 18.1393 9.91827 17.9107C9.14313 17.6821 7.69682 16.7316 5.91021 16.4188C4.1456 16.1099 2.83799 15.4022 1.29715 15.4082C0.0809644 15.4129 0.0935181 15.1563 0.0115418 16.0819C-0.101894 17.3633 2.71676 20.2477 3.41462 20.5095C4.09281 20.764 5.55825 21.3975 6.74207 21.4239C7.73978 21.4462 7.5551 21.4956 8.17892 21.1352C8.67782 20.847 9.6793 20.31 9.6914 20.317C9.69639 20.32 9.54545 20.6848 8.85954 21.0871C8.46138 21.3206 6.96894 22.3564 6.43957 22.6271C5.91021 22.8978 3.92508 23.5475 3.64149 23.7821C3.3579 24.0167 3.0554 24.2393 3.0365 24.6965C3.01759 25.1537 3.23872 25.9488 3.41462 26.1403C3.61525 26.3588 4.15482 26.3232 4.54898 26.5253C4.97088 26.7416 5.54154 27.3194 5.91021 27.3916C6.27887 27.4638 7.52432 27.4899 7.95205 27.536C8.5665 27.6021 9.50234 27.9691 9.91827 28.1135C10.3342 28.2578 11.1339 28.2686 11.4308 28.5466C11.7688 28.8632 14.2892 29.0211 14.9851 28.9797C15.3488 28.9581 16.3114 28.9591 17.1203 28.8835C17.7997 28.82 18.3792 28.672 18.3882 28.691C18.4094 28.7361 16.7113 29.071 16.1951 29.1241C15.8004 29.1647 13.5388 29.2189 12.3382 29.0279C11.5899 28.9088 11.7805 28.9797 11.8089 29.2685C11.8372 29.5573 10.8919 33.0344 10.0695 33.7924C9.04542 34.7362 7.58497 37.9869 7.64956 38.3162C7.69228 38.5337 8.72652 39.4326 10.7501 41.0113Z" fill="#FFECEC" stroke="#FFECEC" stroke-width="2" stroke-miterlimit="3" stroke-linecap="square"/>
</g>
</svg>
