<svg width="979" height="416" viewBox="0 0 979 416" fill="none" xmlns="http://www.w3.org/2000/svg">
<path d="M199.15 270.06C199.554 265.924 199.359 261.751 198.57 257.67C197.806 253.669 196.629 249.759 195.06 246C193.558 242.186 191.679 238.531 189.45 235.09C184.887 228.151 178.914 222.249 171.92 217.77C165.049 213.412 157.538 210.156 149.66 208.12C141.968 206.111 134.083 204.931 126.14 204.6C110.544 204.008 94.9452 205.723 79.85 209.69C95.32 209.57 110.6 209.6 125.5 211.69C140.4 213.78 154.94 217.58 166.98 225.39C172.976 229.216 178.183 234.155 182.32 239.94C186.426 245.865 189.558 252.407 191.6 259.32C193.5 266.17 193.97 273.47 191.49 280.18C190.284 283.61 188.415 286.77 185.99 289.48C183.511 292.34 180.485 294.676 177.09 296.35C184.75 294.81 191.61 289.29 195.57 282.02C197.505 278.294 198.72 274.236 199.15 270.06Z" fill="#FAFAFA"/>
<path d="M79.15 258C82.69 273.23 89.15 288.17 99.29 300.65C104.354 306.887 110.26 312.39 116.84 317C118.43 318.19 120.21 319.2 121.89 320.3C122.76 320.81 123.66 321.3 124.56 321.77C125.447 322.275 126.362 322.729 127.3 323.13C131.058 324.975 135.079 326.227 139.22 326.84C143.511 327.51 147.9 327.143 152.02 325.77C156.015 324.304 159.601 321.904 162.48 318.77C165.155 315.764 167.323 312.342 168.9 308.64C170.467 305.072 171.543 301.307 172.1 297.45C170.637 300.953 168.831 304.302 166.71 307.45C164.699 310.502 162.245 313.239 159.43 315.57C156.805 317.774 153.698 319.33 150.36 320.11C147.093 320.76 143.722 320.678 140.49 319.87C137.125 319.04 133.89 317.748 130.88 316.03C129.3 315.25 127.83 314.17 126.3 313.27C124.84 312.2 123.3 311.27 121.9 310.09C116.128 305.701 110.904 300.635 106.34 295C97.19 283.7 90.65 270.3 86.03 256.16C83.7041 249.023 81.8205 241.749 80.39 234.38C78.86 226.98 77.81 219.45 77.01 211.8C74.9011 227.202 75.6264 242.859 79.15 258V258Z" fill="#FAFAFA"/>
<path d="M146 279.84C141.992 280.114 138.043 280.952 134.27 282.33C130.499 283.62 126.963 285.515 123.8 287.94L135.26 286.21C138.99 285.67 142.67 285.14 146.34 284.94C149.968 284.683 153.611 284.737 157.23 285.1C159.103 285.338 160.957 285.702 162.78 286.19C164.91 288.58 167.03 291 169.04 293.5C177.25 302.98 184.45 313.21 191.99 323.41C186.713 311.849 180.266 300.858 172.75 290.61L170 286.72C169.06 285.44 168 284.24 167 283L165.87 281.61C165.066 278.416 164.62 275.143 164.54 271.85C164.565 268.212 164.9 264.582 165.54 261C166.14 257.38 167.06 253.78 168 250.12L171 238.92C168.251 241.809 165.986 245.121 164.29 248.73C162.521 252.334 161.266 256.168 160.56 260.12C159.81 264.149 159.81 268.281 160.56 272.31C160.908 273.905 161.421 275.46 162.09 276.95L161 275.59C156.7 270.9 152.49 266.11 147.92 261.68C147.8 261.57 147.68 261.46 147.57 261.34C147.47 260.77 147.38 260.21 147.28 259.64L146.64 254.76C146.56 253.13 146.23 251.56 146.25 249.97C146.25 249.18 146.14 248.39 146.14 247.6V245.26C146.241 242.143 146.691 239.047 147.48 236.03C148.308 232.871 149.57 229.842 151.23 227.03C148.108 228.789 145.613 231.477 144.09 234.72C142.493 237.958 141.61 241.501 141.5 245.11V247.8C141.56 248.68 141.69 249.56 141.81 250.44C142.07 252.185 142.478 253.904 143.03 255.58C143.289 256.37 143.593 257.145 143.94 257.9C140.63 254.79 137.23 251.78 133.82 248.78L126.43 242.78C125.95 242.4 125.43 242.03 124.97 241.66C124.97 240.32 124.91 239.03 124.97 237.73C124.97 235.37 124.97 233.06 125.08 230.73L125.27 223.63C125.27 221.21 125.32 218.77 125.12 216.11C123.472 218.142 122.236 220.475 121.48 222.98C120.701 225.445 120.267 228.006 120.19 230.59C120.108 233.207 120.445 235.82 121.19 238.33C121.25 238.53 121.33 238.72 121.4 238.92L118.84 237C108.633 229.436 97.6832 222.929 86.16 217.58C96.45 224.96 106.33 232.69 115.94 240.73L117.29 241.88C115.623 241.312 113.9 240.923 112.15 240.72C109.487 240.412 106.794 240.479 104.15 240.92C101.465 241.32 98.8852 242.248 96.56 243.65C99.25 244.25 101.76 244.59 104.25 244.92L111.56 245.8C113.97 246.06 116.34 246.42 118.77 246.75C120.46 246.97 122.13 247.28 123.9 247.56C128.787 251.84 133.577 256.23 138.27 260.73C137.613 260.521 136.946 260.347 136.27 260.21C135.27 259.99 134.27 259.75 133.32 259.58L130.32 259.26C126.259 258.968 122.18 259.485 118.32 260.78C114.52 262.14 110.86 264.27 108.49 267.5C111.946 266.095 115.57 265.144 119.27 264.67C122.824 264.212 126.415 264.108 129.99 264.36L132.67 264.59C133.57 264.67 134.46 264.86 135.36 264.96C137.17 265.13 138.94 265.63 140.77 265.9L144.36 266.68C148.65 270.76 152.59 275.17 156.73 279.4C157.28 280.03 157.84 280.66 158.4 281.28L158.14 281.18C154.21 279.994 150.095 279.539 146 279.84Z" fill="#FAFAFA"/>
<path d="M893.34 217.57C881.816 222.923 870.867 229.433 860.66 237L858.14 238.87C858.2 238.67 858.29 238.48 858.34 238.28C859.085 235.77 859.422 233.157 859.34 230.54C859.263 227.956 858.829 225.395 858.05 222.93C857.294 220.426 856.058 218.092 854.41 216.06C854.21 218.72 854.23 221.16 854.27 223.58L854.45 230.68C854.54 233.02 854.52 235.33 854.56 237.68C854.56 238.98 854.56 240.27 854.56 241.61C854.07 241.98 853.56 242.35 853.09 242.73L845.7 248.73C842.29 251.73 838.89 254.73 835.58 257.85C835.927 257.095 836.231 256.32 836.49 255.53C837.042 253.855 837.45 252.135 837.71 250.39C837.82 249.51 837.96 248.63 838.02 247.75V245.06C837.905 241.452 837.022 237.91 835.43 234.67C833.908 231.427 831.412 228.739 828.29 226.98C829.95 229.792 831.212 232.821 832.04 235.98C832.831 238.996 833.277 242.093 833.37 245.21V247.55C833.37 248.34 833.28 249.13 833.26 249.92C833.26 251.51 832.95 253.08 832.87 254.71L832.23 259.59C832.13 260.16 832.04 260.72 831.94 261.29C831.83 261.41 831.71 261.52 831.59 261.63C827.02 266.06 822.81 270.85 818.51 275.54L817.4 276.9C818.065 275.409 818.577 273.854 818.93 272.26C819.68 268.231 819.68 264.099 818.93 260.07C818.225 256.118 816.969 252.284 815.2 248.68C813.504 245.071 811.239 241.759 808.49 238.87L811.49 250.07C812.43 253.73 813.35 257.33 813.95 260.95C814.59 264.532 814.925 268.162 814.95 271.8C814.87 275.093 814.424 278.366 813.62 281.56L812.49 282.95C811.49 284.19 810.49 285.39 809.49 286.67L806.72 290.56C799.204 300.81 792.754 311.8 787.47 323.36C795.01 313.16 802.22 302.93 810.47 293.45C812.47 290.95 814.6 288.53 816.73 286.14C818.553 285.652 820.408 285.288 822.28 285.05C825.899 284.687 829.542 284.633 833.17 284.89C836.84 285.09 840.52 285.62 844.25 286.16L855.71 287.89C852.547 285.465 849.011 283.57 845.24 282.28C841.467 280.902 837.518 280.064 833.51 279.79C829.423 279.489 825.315 279.939 821.39 281.12L821.13 281.22C821.69 280.6 822.25 279.97 822.8 279.34C826.94 275.11 830.88 270.7 835.17 266.62L838.76 265.84C840.59 265.57 842.36 265.07 844.17 264.9C845.07 264.8 845.96 264.61 846.86 264.53L849.55 264.3C853.122 264.048 856.709 264.152 860.26 264.61C863.96 265.085 867.584 266.037 871.04 267.44C868.67 264.21 865.04 262.08 861.21 260.72C857.35 259.425 853.271 258.908 849.21 259.2L846.21 259.52C845.21 259.69 844.21 259.93 843.21 260.15C842.534 260.287 841.867 260.461 841.21 260.67C845.877 256.17 850.667 251.78 855.58 247.5C857.35 247.22 859.02 246.91 860.71 246.69C863.14 246.36 865.51 246 867.92 245.74L875.23 244.86C877.72 244.53 880.23 244.19 882.92 243.59C880.595 242.188 878.015 241.26 875.33 240.86C872.686 240.419 869.993 240.352 867.33 240.66C865.58 240.862 863.857 241.251 862.19 241.82C862.64 241.44 863.08 241.05 863.54 240.67C873.17 232.68 883.05 225 893.34 217.57Z" fill="#FAFAFA"/>
<path d="M899.65 209.65C884.555 205.683 868.956 203.968 853.36 204.56C845.417 204.89 837.532 206.07 829.84 208.08C821.962 210.116 814.451 213.372 807.58 217.73C800.588 222.212 794.616 228.113 790.05 235.05C787.821 238.491 785.942 242.146 784.44 245.96C782.873 249.733 781.697 253.657 780.93 257.67C780.136 261.75 779.941 265.924 780.35 270.06C780.787 274.219 782.001 278.259 783.93 281.97C787.93 289.24 794.75 294.76 802.41 296.3C799.015 294.626 795.989 292.29 793.51 289.43C791.088 286.718 789.22 283.559 788.01 280.13C785.53 273.42 786.01 266.13 787.9 259.27C789.942 252.357 793.074 245.815 797.18 239.89C801.317 234.105 806.524 229.166 812.52 225.34C824.52 217.53 839.18 213.66 854 211.64C868.82 209.62 884.18 209.53 899.65 209.65Z" fill="#FAFAFA"/>
<path d="M880.21 300.67C890.34 288.19 896.81 273.25 900.35 258.02C903.881 242.86 904.606 227.181 902.49 211.76C901.69 219.41 900.64 226.94 899.11 234.34C897.679 241.709 895.796 248.983 893.47 256.12C888.85 270.26 882.31 283.66 873.16 294.96C868.598 300.605 863.374 305.682 857.6 310.08C856.19 311.25 854.66 312.19 853.2 313.26C851.67 314.16 850.2 315.26 848.63 316.02C845.618 317.735 842.384 319.027 839.02 319.86C835.785 320.668 832.411 320.75 829.14 320.1C825.802 319.32 822.695 317.764 820.07 315.56C817.255 313.229 814.801 310.492 812.79 307.44C810.665 304.294 808.859 300.945 807.4 297.44C807.957 301.297 809.033 305.062 810.6 308.63C812.177 312.332 814.345 315.754 817.02 318.76C819.899 321.894 823.485 324.294 827.48 325.76C831.6 327.134 835.989 327.501 840.28 326.83C844.421 326.215 848.442 324.964 852.2 323.12C853.14 322.715 854.058 322.261 854.95 321.76C855.84 321.28 856.74 320.76 857.61 320.29C859.29 319.19 861.07 318.18 862.66 316.99C869.238 312.389 875.144 306.897 880.21 300.67V300.67Z" fill="#FAFAFA"/>
<path d="M313.53 268.84V102.15H234V268.84H260.19V123.58H287.34V268.84H313.53Z" fill="#FAFAFA"/>
<path d="M417.12 268.84V102.15H357.12C342.83 102.15 337.6 107.86 337.6 120.72V247.4H323.06V268.84H344.25C359.25 268.84 362.83 264.84 363.78 251.45V123.58H390.93V268.84H417.12Z" fill="#FAFAFA"/>
<path d="M431.41 102.15V268.84H457.6V202.64C457.6 202.64 464.51 219.07 475.46 239.31L491.46 268.84H522.18L472.18 182.16L516.71 102.16H489L474.71 128.59C463.52 149.54 457.56 164.07 457.56 164.07V102.15H431.41Z" fill="#FAFAFA"/>
<path d="M572.14 102.15V268.84H598.34V192.63H625.48V268.84H651.68V102.15H625.48V171.2H598.34V102.15H572.14Z" fill="#FAFAFA"/>
<path d="M665.97 102.15V268.84H692.16V192.63H719.31V268.84H745.5V102.15H719.31V171.2H692.16V102.15H665.97Z" fill="#FAFAFA"/>
<path d="M962.62 201.1C900.62 117.24 788.82 55.45 636.36 30.9C553.65 17.54 451.3 15.4 360.59 28.27C207.64 50 92.3 109.36 25.32 190C108.18 107.4 226.58 57.84 363.69 40.22C450.32 28.91 548 30.15 632.85 42.75C768.71 62.76 884.56 114.32 962.62 201.1Z" fill="#FAFAFA"/>
<path d="M807 416C764.666 365.157 688.327 327.694 584.226 312.81C527.75 304.71 457.864 303.412 395.927 311.215C291.49 324.39 212.735 360.379 167 409.27C223.578 359.191 304.423 329.143 398.043 318.461C457.195 311.603 523.892 312.355 581.829 319.994C674.596 332.126 753.7 363.386 807 416Z" fill="#FAFAFA"/>
<path d="M96.24 104C170.12 59.17 258.24 31.3 349.76 18.39C441.28 5.48 542.87 6.22 630.96 18.61C724.4 31.69 811.96 59.61 884.42 104.11C919.162 125.19 950.893 150.873 978.75 180.46C954.34 151 923.67 124.14 888.24 100.97C816.24 54.02 729.01 24.97 633.16 10.69C544.9 -2.46 440.77 -3.31 347.53 10.45C245.05 25.79 160 57.34 92.43 100.8C56.82 123.8 25.75 150.4 0.75 179.6C29.1681 150.367 61.2673 124.954 96.24 104V104Z" fill="#FAFAFA"/>
</svg>
