<svg width="1203" height="557" viewBox="0 0 1203 557" fill="none" xmlns="http://www.w3.org/2000/svg">
<rect width="1203" height="557" rx="30" fill="#212121"/>
<path d="M310.15 344.06C310.554 339.924 310.359 335.751 309.57 331.67C308.806 327.669 307.629 323.759 306.06 320C304.558 316.186 302.679 312.531 300.45 309.09C295.887 302.151 289.914 296.249 282.92 291.77C276.049 287.412 268.538 284.156 260.66 282.12C252.968 280.111 245.083 278.931 237.14 278.6C221.544 278.008 205.945 279.723 190.85 283.69C206.32 283.57 221.6 283.6 236.5 285.69C251.4 287.78 265.94 291.58 277.98 299.39C283.976 303.216 289.183 308.155 293.32 313.94C297.426 319.865 300.558 326.407 302.6 333.32C304.5 340.17 304.97 347.47 302.49 354.18C301.284 357.61 299.415 360.77 296.99 363.48C294.511 366.34 291.485 368.676 288.09 370.35C295.75 368.81 302.61 363.29 306.57 356.02C308.505 352.294 309.72 348.236 310.15 344.06Z" fill="#FAFAFA"/>
<path d="M190.15 332C193.69 347.23 200.15 362.17 210.29 374.65C215.354 380.887 221.26 386.39 227.84 391C229.43 392.19 231.21 393.2 232.89 394.3C233.76 394.81 234.66 395.3 235.56 395.77C236.447 396.275 237.362 396.729 238.3 397.13C242.058 398.975 246.079 400.227 250.22 400.84C254.511 401.51 258.9 401.143 263.02 399.77C267.015 398.304 270.601 395.904 273.48 392.77C276.155 389.764 278.323 386.342 279.9 382.64C281.467 379.072 282.543 375.307 283.1 371.45C281.637 374.953 279.831 378.302 277.71 381.45C275.699 384.502 273.245 387.239 270.43 389.57C267.805 391.774 264.698 393.33 261.36 394.11C258.093 394.76 254.722 394.678 251.49 393.87C248.125 393.04 244.89 391.748 241.88 390.03C240.3 389.25 238.83 388.17 237.3 387.27C235.84 386.2 234.3 385.27 232.9 384.09C227.128 379.701 221.904 374.635 217.34 369C208.19 357.7 201.65 344.3 197.03 330.16C194.704 323.023 192.821 315.749 191.39 308.38C189.86 300.98 188.81 293.45 188.01 285.8C185.901 301.202 186.626 316.859 190.15 332Z" fill="#FAFAFA"/>
<path d="M257 353.84C252.992 354.114 249.043 354.952 245.27 356.33C241.499 357.62 237.963 359.515 234.8 361.94L246.26 360.21C249.99 359.67 253.67 359.14 257.34 358.94C260.968 358.683 264.611 358.737 268.23 359.1C270.103 359.338 271.957 359.702 273.78 360.19C275.91 362.58 278.03 365 280.04 367.5C288.25 376.98 295.45 387.21 302.99 397.41C297.713 385.849 291.266 374.858 283.75 364.61L281 360.72C280.06 359.44 279 358.24 278 357L276.87 355.61C276.066 352.416 275.62 349.143 275.54 345.85C275.565 342.212 275.9 338.582 276.54 335C277.14 331.38 278.06 327.78 279 324.12L282 312.92C279.251 315.809 276.986 319.121 275.29 322.73C273.521 326.334 272.266 330.168 271.56 334.12C270.81 338.149 270.81 342.281 271.56 346.31C271.908 347.905 272.421 349.46 273.09 350.95L272 349.59C267.7 344.9 263.49 340.11 258.92 335.68C258.8 335.57 258.68 335.46 258.57 335.34C258.47 334.77 258.38 334.21 258.28 333.64L257.64 328.76C257.56 327.13 257.23 325.56 257.25 323.97C257.25 323.18 257.14 322.39 257.14 321.6V319.26C257.241 316.143 257.691 313.047 258.48 310.03C259.308 306.871 260.57 303.842 262.23 301.03C259.108 302.789 256.613 305.477 255.09 308.72C253.493 311.958 252.61 315.501 252.5 319.11V321.8C252.56 322.68 252.69 323.56 252.81 324.44C253.07 326.185 253.478 327.904 254.03 329.58C254.289 330.37 254.593 331.145 254.94 331.9C251.63 328.79 248.23 325.78 244.82 322.78L237.43 316.78C236.95 316.4 236.43 316.03 235.97 315.66C235.97 314.32 235.91 313.03 235.97 311.73C235.97 309.37 235.97 307.06 236.08 304.73L236.27 297.63C236.27 295.21 236.32 292.77 236.12 290.11C234.472 292.142 233.236 294.475 232.48 296.98C231.701 299.445 231.267 302.006 231.19 304.59C231.108 307.207 231.445 309.82 232.19 312.33C232.25 312.53 232.33 312.72 232.4 312.92L229.84 311C219.633 303.436 208.683 296.929 197.16 291.58C207.45 298.96 217.33 306.69 226.94 314.73L228.29 315.88C226.623 315.312 224.9 314.923 223.15 314.72C220.487 314.412 217.794 314.479 215.15 314.92C212.465 315.32 209.885 316.248 207.56 317.65C210.25 318.25 212.76 318.59 215.25 318.92L222.56 319.8C224.97 320.06 227.34 320.42 229.77 320.75C231.46 320.97 233.13 321.28 234.9 321.56C239.787 325.84 244.577 330.23 249.27 334.73C248.613 334.521 247.946 334.347 247.27 334.21C246.27 333.99 245.27 333.75 244.32 333.58L241.32 333.26C237.259 332.968 233.18 333.485 229.32 334.78C225.52 336.14 221.86 338.27 219.49 341.5C222.946 340.095 226.57 339.144 230.27 338.67C233.824 338.212 237.415 338.108 240.99 338.36L243.67 338.59C244.57 338.67 245.46 338.86 246.36 338.96C248.17 339.13 249.94 339.63 251.77 339.9L255.36 340.68C259.65 344.76 263.59 349.17 267.73 353.4C268.28 354.03 268.84 354.66 269.4 355.28L269.14 355.18C265.21 353.994 261.095 353.539 257 353.84Z" fill="#FAFAFA"/>
<path d="M1004.34 291.57C992.816 296.923 981.867 303.433 971.66 311L969.14 312.87C969.2 312.67 969.29 312.48 969.34 312.28C970.085 309.77 970.422 307.157 970.34 304.54C970.263 301.956 969.829 299.395 969.05 296.93C968.294 294.426 967.058 292.092 965.41 290.06C965.21 292.72 965.23 295.16 965.27 297.58L965.45 304.68C965.54 307.02 965.52 309.33 965.56 311.68C965.56 312.98 965.56 314.27 965.56 315.61C965.07 315.98 964.56 316.35 964.09 316.73L956.7 322.73C953.29 325.73 949.89 328.73 946.58 331.85C946.927 331.095 947.231 330.32 947.49 329.53C948.042 327.854 948.45 326.135 948.71 324.39C948.82 323.51 948.96 322.63 949.02 321.75V319.06C948.905 315.452 948.022 311.91 946.43 308.67C944.908 305.427 942.412 302.739 939.29 300.98C940.95 303.792 942.212 306.821 943.04 309.98C943.831 312.996 944.277 316.093 944.37 319.21V321.55C944.37 322.34 944.28 323.13 944.26 323.92C944.26 325.51 943.95 327.08 943.87 328.71L943.23 333.59C943.13 334.16 943.04 334.72 942.94 335.29C942.83 335.41 942.71 335.52 942.59 335.63C938.02 340.06 933.81 344.85 929.51 349.54L928.4 350.9C929.065 349.409 929.577 347.854 929.93 346.26C930.68 342.231 930.68 338.099 929.93 334.07C929.225 330.118 927.969 326.284 926.2 322.68C924.504 319.071 922.239 315.759 919.49 312.87L922.49 324.07C923.43 327.73 924.35 331.33 924.95 334.95C925.59 338.532 925.925 342.162 925.95 345.8C925.87 349.093 925.424 352.366 924.62 355.56L923.49 356.95C922.49 358.19 921.49 359.39 920.49 360.67L917.72 364.56C910.204 374.81 903.754 385.8 898.47 397.36C906.01 387.16 913.22 376.93 921.47 367.45C923.47 364.95 925.6 362.53 927.73 360.14C929.553 359.652 931.408 359.288 933.28 359.05C936.899 358.687 940.542 358.633 944.17 358.89C947.84 359.09 951.52 359.62 955.25 360.16L966.71 361.89C963.547 359.465 960.011 357.57 956.24 356.28C952.467 354.902 948.518 354.064 944.51 353.79C940.423 353.489 936.315 353.939 932.39 355.12L932.13 355.22C932.69 354.6 933.25 353.97 933.8 353.34C937.94 349.11 941.88 344.7 946.17 340.62L949.76 339.84C951.59 339.57 953.36 339.07 955.17 338.9C956.07 338.8 956.96 338.61 957.86 338.53L960.55 338.3C964.122 338.048 967.709 338.152 971.26 338.61C974.96 339.085 978.584 340.037 982.04 341.44C979.67 338.21 976.04 336.08 972.21 334.72C968.35 333.425 964.271 332.908 960.21 333.2L957.21 333.52C956.21 333.69 955.21 333.93 954.21 334.15C953.534 334.287 952.867 334.461 952.21 334.67C956.877 330.17 961.667 325.78 966.58 321.5C968.35 321.22 970.02 320.91 971.71 320.69C974.14 320.36 976.51 320 978.92 319.74L986.23 318.86C988.72 318.53 991.23 318.19 993.92 317.59C991.595 316.188 989.015 315.26 986.33 314.86C983.686 314.419 980.993 314.352 978.33 314.66C976.58 314.862 974.857 315.251 973.19 315.82C973.64 315.44 974.08 315.05 974.54 314.67C984.17 306.68 994.05 299 1004.34 291.57Z" fill="#FAFAFA"/>
<path d="M1010.65 283.65C995.555 279.683 979.956 277.968 964.36 278.56C956.417 278.89 948.532 280.07 940.84 282.08C932.962 284.116 925.451 287.372 918.58 291.73C911.588 296.212 905.616 302.113 901.05 309.05C898.821 312.491 896.942 316.146 895.44 319.96C893.873 323.733 892.697 327.657 891.93 331.67C891.136 335.75 890.941 339.924 891.35 344.06C891.787 348.219 893.001 352.259 894.93 355.97C898.93 363.24 905.75 368.76 913.41 370.3C910.015 368.626 906.989 366.29 904.51 363.43C902.088 360.718 900.22 357.559 899.01 354.13C896.53 347.42 897.01 340.13 898.9 333.27C900.942 326.357 904.074 319.815 908.18 313.89C912.317 308.105 917.524 303.166 923.52 299.34C935.52 291.53 950.18 287.66 965 285.64C979.82 283.62 995.18 283.53 1010.65 283.65Z" fill="#FAFAFA"/>
<path d="M991.21 374.67C1001.34 362.19 1007.81 347.25 1011.35 332.02C1014.88 316.86 1015.61 301.181 1013.49 285.76C1012.69 293.41 1011.64 300.94 1010.11 308.34C1008.68 315.709 1006.8 322.983 1004.47 330.12C999.85 344.26 993.31 357.66 984.16 368.96C979.598 374.605 974.374 379.682 968.6 384.08C967.19 385.25 965.66 386.19 964.2 387.26C962.67 388.16 961.2 389.26 959.63 390.02C956.618 391.735 953.384 393.027 950.02 393.86C946.785 394.668 943.411 394.75 940.14 394.1C936.802 393.32 933.695 391.764 931.07 389.56C928.255 387.229 925.801 384.492 923.79 381.44C921.665 378.294 919.859 374.945 918.4 371.44C918.957 375.297 920.033 379.062 921.6 382.63C923.177 386.332 925.345 389.754 928.02 392.76C930.899 395.894 934.485 398.294 938.48 399.76C942.6 401.134 946.989 401.501 951.28 400.83C955.421 400.215 959.442 398.964 963.2 397.12C964.14 396.715 965.058 396.261 965.95 395.76C966.84 395.28 967.74 394.76 968.61 394.29C970.29 393.19 972.07 392.18 973.66 390.99C980.238 386.389 986.144 380.897 991.21 374.67Z" fill="#FAFAFA"/>
<path d="M424.53 342.84V176.15H345V342.84H371.19V197.58H398.34V342.84H424.53Z" fill="#FAFAFA"/>
<path d="M528.12 342.84V176.15H468.12C453.83 176.15 448.6 181.86 448.6 194.72V321.4H434.06V342.84H455.25C470.25 342.84 473.83 338.84 474.78 325.45V197.58H501.93V342.84H528.12Z" fill="#FAFAFA"/>
<path d="M542.41 176.15V342.84H568.6V276.64C568.6 276.64 575.51 293.07 586.46 313.31L602.46 342.84H633.18L583.18 256.16L627.71 176.16H600L585.71 202.59C574.52 223.54 568.56 238.07 568.56 238.07V176.15H542.41Z" fill="#FAFAFA"/>
<path d="M683.14 176.15V342.84H709.34V266.63H736.48V342.84H762.68V176.15H736.48V245.2H709.34V176.15H683.14Z" fill="#FAFAFA"/>
<path d="M776.97 176.15V342.84H803.16V266.63H830.31V342.84H856.5V176.15H830.31V245.2H803.16V176.15H776.97Z" fill="#FAFAFA"/>
<path d="M1073.62 275.1C1011.62 191.24 899.82 129.45 747.36 104.9C664.65 91.54 562.3 89.4 471.59 102.27C318.64 124 203.3 183.36 136.32 264C219.18 181.4 337.58 131.84 474.69 114.22C561.32 102.91 659 104.15 743.85 116.75C879.71 136.76 995.56 188.32 1073.62 275.1Z" fill="#FAFAFA"/>
<path d="M918 490C875.666 439.157 799.327 401.694 695.226 386.81C638.75 378.71 568.864 377.412 506.926 385.215C402.49 398.39 323.735 434.379 278 483.27C334.578 433.191 415.423 403.143 509.043 392.461C568.195 385.603 634.892 386.355 692.829 393.994C785.596 406.126 864.7 437.386 918 490Z" fill="#FAFAFA"/>
<path d="M207.24 178C281.12 133.17 369.24 105.3 460.76 92.39C552.28 79.48 653.87 80.22 741.96 92.61C835.4 105.69 922.96 133.61 995.42 178.11C1030.16 199.19 1061.89 224.873 1089.75 254.46C1065.34 225 1034.67 198.14 999.24 174.97C927.24 128.02 840.01 98.97 744.16 84.69C655.9 71.54 551.77 70.69 458.53 84.45C356.05 99.79 271 131.34 203.43 174.8C167.82 197.8 136.75 224.4 111.75 253.6C140.168 224.367 172.267 198.954 207.24 178Z" fill="#FAFAFA"/>
</svg>
