<svg width="33" height="33" viewBox="0 0 33 33" fill="none" xmlns="http://www.w3.org/2000/svg">
<path d="M16.5 30.9375C12.6709 30.9375 8.9987 29.4164 6.29115 26.7089C3.58359 24.0013 2.0625 20.3291 2.0625 16.5C2.0625 12.6709 3.58359 8.9987 6.29115 6.29115C8.9987 3.58359 12.6709 2.0625 16.5 2.0625C20.3291 2.0625 24.0013 3.58359 26.7089 6.29115C29.4164 8.9987 30.9375 12.6709 30.9375 16.5C30.9375 20.3291 29.4164 24.0013 26.7089 26.7089C24.0013 29.4164 20.3291 30.9375 16.5 30.9375ZM16.5 33C20.8761 33 25.0729 31.2616 28.1673 28.1673C31.2616 25.0729 33 20.8761 33 16.5C33 12.1239 31.2616 7.92709 28.1673 4.83274C25.0729 1.73839 20.8761 0 16.5 0C12.1239 0 7.92709 1.73839 4.83274 4.83274C1.73839 7.92709 0 12.1239 0 16.5C0 20.8761 1.73839 25.0729 4.83274 28.1673C7.92709 31.2616 12.1239 33 16.5 33Z" fill="#51961B"/>
<path d="M16.5 8.25C16.7735 8.25 17.0358 8.35865 17.2292 8.55205C17.4226 8.74544 17.5312 9.00775 17.5312 9.28125V15.4688H23.7188C23.9923 15.4688 24.2546 15.5774 24.448 15.7708C24.6414 15.9642 24.75 16.2265 24.75 16.5C24.75 16.7735 24.6414 17.0358 24.448 17.2292C24.2546 17.4226 23.9923 17.5312 23.7188 17.5312H17.5312V23.7188C17.5312 23.9923 17.4226 24.2546 17.2292 24.448C17.0358 24.6414 16.7735 24.75 16.5 24.75C16.2265 24.75 15.9642 24.6414 15.7708 24.448C15.5774 24.2546 15.4688 23.9923 15.4688 23.7188V17.5312H9.28125C9.00775 17.5312 8.74544 17.4226 8.55205 17.2292C8.35865 17.0358 8.25 16.7735 8.25 16.5C8.25 16.2265 8.35865 15.9642 8.55205 15.7708C8.74544 15.5774 9.00775 15.4688 9.28125 15.4688H15.4688V9.28125C15.4688 9.00775 15.5774 8.74544 15.7708 8.55205C15.9642 8.35865 16.2265 8.25 16.5 8.25Z" fill="#51961B"/>
</svg>
